<?xml version="1.0" encoding="UTF-8"?>
<svg id="Camada_2" xmlns="http://www.w3.org/2000/svg" viewBox="0 0 512 81.31">
  <defs>
    <style>
      .cls-1, .cls-2 { fill: #ffba00; }
      .cls-3, .cls-4 { fill: #fff; }
      .cls-4, .cls-2 { fill-rule: evenodd; }
    </style>
  </defs>
  <g id="Camada_3">
    <g>
      <path class="cls-2" d="M25.97.24c-5.18-1-10.42,1.01-13.32,7.65-1.75,4-4.07,4.41-7.6,6.53C-.05,17.5-.94,23.66.84,28.94c1.66,4.9,4.91,8.14,8.99,10.19,7.63,3.66,16.03,4.08,24.06,2.85-.03-.16-.06-.32-.07-.48-5.94-.37-12.51-2.3-13.98-6.63-.95-2.82-.48-6.12,2.25-7.76,1.89-1.14,3.13-1.35,4.06-3.49,1.55-3.55,4.35-4.62,7.12-4.09,1.38.26,2.69.78,3.76,1.61.37-4.73,1.3-8.64,0-12.33C35.3,3.83,30.86,1.18,25.96.25"/>
      <path class="cls-2" d="M55.49,81.04c5.17,1,10.43-1.01,13.32-7.65,1.74-4,4.07-4.4,7.6-6.54,5.1-3.08,5.99-9.23,4.21-14.52-1.66-4.9-4.91-8.14-8.99-10.18-7.63-3.66-16.04-4.08-24.07-2.85.03.16.06.31.08.48,5.94.37,12.52,2.3,13.98,6.63.95,2.83.48,6.12-2.25,7.76-1.89,1.14-3.13,1.35-4.06,3.49-1.55,3.54-4.35,4.62-7.12,4.09-1.38-.26-2.69-.79-3.76-1.6-.37,4.73-1.3,8.63,0,12.33,1.74,4.96,6.18,7.61,11.07,8.55"/>
      <path class="cls-4" d="M.24,55.35c-.99,5.18,1.01,10.42,7.65,13.31,4,1.74,4.41,4.07,6.54,7.6,3.08,5.1,9.24,6,14.52,4.21,4.9-1.66,8.14-4.91,10.18-8.99,3.65-7.61,4.08-15.98,2.86-23.98-.17.03-.33.06-.5.07-.39,5.92-2.31,12.44-6.63,13.9-2.82.95-6.11.47-7.76-2.25-1.13-1.89-1.35-3.13-3.49-4.06-3.55-1.55-4.62-4.35-4.09-7.12.26-1.38.79-2.69,1.6-3.76-4.72-.37-8.63-1.3-12.33,0-4.96,1.74-7.61,6.18-8.55,11.07"/>
      <path class="cls-4" d="M81.21,25.96c1-5.18-1.01-10.42-7.65-13.31-4-1.74-4.4-4.07-6.54-7.59C63.95-.05,57.79-.94,52.5.85c-4.9,1.66-8.14,4.91-10.18,8.99-3.64,7.61-4.08,15.98-2.86,23.98.16-.03.33-.05.5-.07.39-5.92,2.31-12.44,6.63-13.9,2.82-.95,6.12-.48,7.76,2.25,1.14,1.89,1.35,3.13,3.49,4.06,3.54,1.55,4.62,4.35,4.09,7.12-.26,1.38-.78,2.69-1.6,3.76,4.72.37,8.63,1.3,12.33,0,4.96-1.74,7.61-6.18,8.55-11.07"/>
      <path class="cls-1" d="M136.47,37.95s7.69,3.44,6.39,12.75c-1.67,11.86-9.35,16.92-25.39,16.92h-26.38l7.89-56.12h25.5c14.99,0,20.85,4.57,19.33,15.32-1.21,8.58-7.34,11.14-7.34,11.14h0ZM116.3,56.55c4.73,0,7.06-1.77,7.64-5.86.67-4.73-1.05-6.81-5.86-6.81h-5.69l-1.78,12.67h5.7,0ZM115.38,22.56l-1.57,11.14h4.81c3.69,0,5.55-1.84,6.14-6.01.51-3.61-.88-5.13-4.57-5.13h-4.81Z"/>
      <path class="cls-1" d="M161.88,51.67c-.75,5.37,1.52,7.46,5.28,7.46,3.21,0,5.08-1.36,6.07-4.41h15.23c-3.03,9.62-9.78,13.71-22.61,13.71-15.63,0-21.41-6.25-19.36-20.85,2.05-14.59,9.58-20.85,25.22-20.85s21.41,6.25,19.37,20.76l-.59,4.17h-28.62.01ZM170.17,36.03c-3.77,0-6.39,2.72-7.02,7.14h12.27c.7-4.97-1-7.14-5.25-7.14h0Z"/>
      <path class="cls-1" d="M218.99,56.55h7.62l-1.55,11.06h-14.03c-8.1,0-12.46-4.89-11.31-13.07l2.49-17.72h-6.41l1.31-9.3h6.41l1.47-10.51h16.2l-1.47,10.51h10.98l-1.3,9.3h-10.98l-2.25,16.04c-.31,2.25.92,3.69,2.85,3.69"/>
      <path class="cls-3" d="M247.39,49.85c-7.23,0-9.8-3.66-8.61-12.16,1.19-8.51,4.8-12.16,12.05-12.16,2.58,0,4.57.47,6.01,1.45l1.45-10.34h9.45l-4.6,32.74h-7.3l-.92-1.73c-1.89,1.49-4.36,2.2-7.54,2.2h0ZM255.35,37.69c.57-4.02-.28-5.71-2.75-5.71s-3.84,1.68-4.4,5.71.28,5.71,2.8,5.71,3.79-1.68,4.36-5.71"/>
      <path class="cls-3" d="M275.29,49.85c-6.27,0-8.62-2.25-7.87-7.53.78-5.57,4.67-7.95,13.05-7.95h2.76l.13-.89c.3-2.11-.28-2.99-2.01-2.99s-2.54.75-2.79,2.53h-8.89c.74-5.24,4.51-7.48,12.65-7.48s11.23,2.66,10.35,8.93l-2.1,14.92h-7.3l-.85-1.59c-1.74,1.4-4.08,2.06-7.12,2.06M280.66,39.28c-1.82,0-3.44.23-3.77,2.53-.23,1.59.36,2.06,1.91,2.06,2.43,0,3.3-1.54,3.62-3.74l.12-.84h-1.88ZM292.36,16.63l-7.12,7.02h-7.25l5.01-7.02h9.36,0Z"/>
      <path class="cls-2" d="M236.96,56.46h51.08c-21.36,4.31-39.4,8.27-53.44,13.36l2.36-13.36Z"/>
      <path class="cls-3" d="M347.27,50.58c-1.75,12.46-9.59,17.85-26.2,17.85s-22.98-5.08-21.31-16.92h15.54c-.62,4.39,1.57,6.31,7.27,6.31,5.08,0,7.58-1.39,8.05-4.77,1.44-10.23-29.68-4.46-26.98-23.69,1.75-12.46,9.43-17.85,25.43-17.85s22.21,5.08,20.54,16.92h-15.46c.62-4.39-1.34-6.31-6.58-6.31-4.54,0-6.75,1.46-7.21,4.77-1.1,7.85,29.83,2.85,26.9,23.69"/>
      <path class="cls-3" d="M395.83,47.65c-1.96,14-9.5,20-24.96,20s-21.31-6-19.34-20c1.97-14,9.43-20,24.97-20s21.31,6,19.34,20M372.36,57.04c4.62,0,7.02-2.85,7.94-9.38s-.68-9.38-5.29-9.38-7.09,2.85-8.01,9.38c-.92,6.54.68,9.38,5.37,9.38"/>
      <path class="cls-3" d="M425.01,39.89c-5.61,0-7.41,1.31-8.32,7.77l-2.7,19.23h-15.46l5.4-38.46h12l1.57,3.08c2.82-2.54,6.08-3.85,9.23-3.85h6.54l-1.72,12.23h-6.54Z"/>
      <path class="cls-3" d="M456.47,56.27h7.31l-1.49,10.62h-13.46c-7.77,0-11.96-4.69-10.85-12.54l2.39-17h-6.15l1.25-8.92h6.15l1.41-10.08h15.54l-1.41,10.08h10.54l-1.25,8.92h-10.54l-2.16,15.39c-.3,2.15.89,3.54,2.74,3.54"/>
      <path class="cls-3" d="M483.59,51.57c-.73,5.15,1.46,7.15,5.07,7.15,3.08,0,4.88-1.31,5.83-4.23h14.62c-2.91,9.23-9.39,13.15-21.69,13.15-15,0-20.54-6-18.57-20,1.96-14,9.2-20,24.2-20s20.54,6,18.58,19.92l-.56,4h-27.47ZM491.55,36.58c-3.62,0-6.14,2.61-6.73,6.85h11.77c.67-4.77-.96-6.85-5.04-6.85h0Z"/>
    </g>
  </g>
</svg>
