<svg xmlns="http://www.w3.org/2000/svg" viewBox="0 0 82 82">
  <path fill="#ffba00" fill-rule="evenodd" d="M25.97.24c-5.18-1-10.42,1.01-13.32,7.65-1.75,4-4.07,4.41-7.6,6.53C-.05,17.5-.94,23.66.84,28.94c1.66,4.9,4.91,8.14,8.99,10.19,7.63,3.66,16.03,4.08,24.06,2.85-.03-.16-.06-.32-.07-.48-5.94-.37-12.51-2.3-13.98-6.63-.95-2.82-.48-6.12,2.25-7.76,1.89-1.14,3.13-1.35,4.06-3.49,1.55-3.55,4.35-4.62,7.12-4.09,1.38.26,2.69.78,3.76,1.61.37-4.73,1.3-8.64,0-12.33C35.3,3.83,30.86,1.18,25.96.25"/>
  <path fill="#ffba00" fill-rule="evenodd" d="M55.49,81.04c5.17,1,10.43-1.01,13.32-7.65,1.74-4,4.07-4.4,7.6-6.54,5.1-3.08,5.99-9.23,4.21-14.52-1.66-4.9-4.91-8.14-8.99-10.18-7.63-3.66-16.04-4.08-24.07-2.85.03.16.06.31.08.48,5.94.37,12.52,2.3,13.98,6.63.95,2.83.48,6.12-2.25,7.76-1.89,1.14-3.13,1.35-4.06,3.49-1.55,3.54-4.35,4.62-7.12,4.09-1.38-.26-2.69-.79-3.76-1.6-.37,4.73-1.3,8.63,0,12.33,1.74,4.96,6.18,7.61,11.07,8.55"/>
  <path fill="#fff" fill-rule="evenodd" d="M.24,55.35c-.99,5.18,1.01,10.42,7.65,13.31,4,1.74,4.41,4.07,6.54,7.6,3.08,5.1,9.24,6,14.52,4.21,4.9-1.66,8.14-4.91,10.18-8.99,3.65-7.61,4.08-15.98,2.86-23.98-.17.03-.33.06-.5.07-.39,5.92-2.31,12.44-6.63,13.9-2.82.95-6.11.47-7.76-2.25-1.13-1.89-1.35-3.13-3.49-4.06-3.55-1.55-4.62-4.35-4.09-7.12.26-1.38.79-2.69,1.6-3.76-4.72-.37-8.63-1.3-12.33,0-4.96,1.74-7.61,6.18-8.55,11.07"/>
  <path fill="#fff" fill-rule="evenodd" d="M81.21,25.96c1-5.18-1.01-10.42-7.65-13.31-4-1.74-4.4-4.07-6.54-7.59C63.95-.05,57.79-.94,52.5.85c-4.9,1.66-8.14,4.91-10.18,8.99-3.64,7.61-4.08,15.98-2.86,23.98.16-.03.33-.05.5-.07.39-5.92,2.31-12.44,6.63-13.9,2.82-.95,6.12-.48,7.76,2.25,1.14,1.89,1.35,3.13,3.49,4.06,3.54,1.55,4.62,4.35,4.09,7.12-.26,1.38-.78,2.69-1.6,3.76,4.72.37,8.63,1.3,12.33,0,4.96-1.74,7.61-6.18,8.55-11.07"/>
</svg>
