<svg xmlns="http://www.w3.org/2000/svg" viewBox="0 0 1440 900" preserveAspectRatio="xMidYMid slice">
  <defs>
    <radialGradient id="vig" cx="50%" cy="50%" r="70%">
      <stop offset="0%" stop-color="#030610" stop-opacity="0"/>
      <stop offset="100%" stop-color="#030610" stop-opacity="0.78"/>
    </radialGradient>
    <radialGradient id="glowA" cx="16%" cy="28%" r="30%">
      <stop offset="0%" stop-color="#0c1e72" stop-opacity="0.22"/>
      <stop offset="100%" stop-color="#030610" stop-opacity="0"/>
    </radialGradient>
    <radialGradient id="glowB" cx="57%" cy="47%" r="34%">
      <stop offset="0%" stop-color="#0c1e72" stop-opacity="0.16"/>
      <stop offset="100%" stop-color="#030610" stop-opacity="0"/>
    </radialGradient>
    <radialGradient id="glowC" cx="26%" cy="80%" r="22%">
      <stop offset="0%" stop-color="#0c1e72" stop-opacity="0.14"/>
      <stop offset="100%" stop-color="#030610" stop-opacity="0"/>
    </radialGradient>
  </defs>

  <rect width="1440" height="900" fill="#030610"/>
  <rect width="1440" height="900" fill="url(#glowA)"/>
  <rect width="1440" height="900" fill="url(#glowB)"/>
  <rect width="1440" height="900" fill="url(#glowC)"/>

  <!-- ═══ FEIÇÃO A — superior esquerda, centro ~(230,250) ═══ -->
  <g stroke="#152870" stroke-width="0.85" fill="none" stroke-opacity="0.38">
    <path d="M244,225 C258,220 268,230 268,248 C268,264 256,276 240,276 C224,276 208,268 208,252 C208,236 220,226 244,225 Z"/>
    <path d="M252,196 C286,190 308,208 308,244 C308,280 286,306 254,308 C222,310 196,290 194,258 C192,226 210,202 252,196 Z"/>
    <path d="M260,164 C314,156 346,182 348,232 C350,282 320,318 276,322 C232,326 196,302 190,262 C184,222 200,172 260,164 Z"/>
    <path d="M268,128 C344,118 388,154 392,222 C396,290 358,336 298,342 C238,348 192,316 182,264 C172,212 188,138 268,128 Z"/>
    <path d="M276,88 C376,76 434,122 440,210 C446,298 396,358 316,366 C236,374 178,334 164,266 C150,198 170,100 276,88 Z"/>
    <path d="M282,46 C408,32 482,88 490,196 C498,304 436,380 336,390 C236,400 164,350 146,268 C128,186 152,60 282,46 Z"/>
    <path d="M286,2 C446,-14 536,54 544,182 C552,310 476,402 354,414 C232,426 148,366 126,270 C104,174 130,18 286,2 Z"/>
    <path d="M288,-42 C486,-60 592,20 600,168 C608,316 516,424 370,438 C224,452 132,382 108,272 C84,162 112,-26 288,-42 Z"/>
  </g>

  <!-- Anel de destaque Feature A -->
  <g stroke="#1d3a9e" stroke-width="1.05" fill="none" stroke-opacity="0.22">
    <path d="M268,128 C344,118 388,154 392,222 C396,290 358,336 298,342 C238,348 192,316 182,264 C172,212 188,138 268,128 Z"/>
  </g>

  <!-- ═══ FEIÇÃO B — centro direita, centro ~(820,420) ═══ -->
  <g stroke="#152870" stroke-width="0.85" fill="none" stroke-opacity="0.35">
    <path d="M836,393 C856,390 870,404 868,422 C866,440 852,454 832,452 C812,450 798,436 800,418 C802,400 816,396 836,393 Z"/>
    <path d="M845,362 C886,356 910,378 908,418 C906,458 880,486 846,486 C812,486 784,462 784,424 C784,386 804,368 845,362 Z"/>
    <path d="M854,328 C916,320 948,350 948,406 C948,462 914,500 864,500 C814,500 778,468 776,420 C774,372 790,336 854,328 Z"/>
    <path d="M862,290 C948,280 992,320 994,392 C996,464 952,516 886,518 C820,520 774,480 770,416 C766,352 784,300 862,290 Z"/>
    <path d="M870,248 C982,236 1040,286 1042,378 C1044,470 988,534 904,538 C820,542 764,494 758,414 C752,334 772,260 870,248 Z"/>
    <path d="M878,202 C1018,188 1092,248 1094,362 C1096,476 1026,556 920,562 C814,568 748,512 740,414 C732,316 754,216 878,202 Z"/>
    <path d="M884,154 C1054,138 1144,208 1146,344 C1148,480 1062,576 934,584 C806,592 730,526 720,412 C710,298 736,170 884,154 Z"/>
    <path d="M890,104 C1092,86 1198,168 1200,328 C1202,488 1100,600 946,610 C792,620 712,544 700,410 C688,276 718,122 890,104 Z"/>
    <path d="M894,52 C1130,32 1254,128 1256,310 C1258,492 1136,624 958,636 C780,648 692,560 678,408 C664,256 700,72 894,52 Z"/>
  </g>

  <!-- Anel de destaque Feature B -->
  <g stroke="#1d3a9e" stroke-width="1.05" fill="none" stroke-opacity="0.20">
    <path d="M870,248 C982,236 1040,286 1042,378 C1044,470 988,534 904,538 C820,542 764,494 758,414 C752,334 772,260 870,248 Z"/>
  </g>

  <!-- ═══ FEIÇÃO C — inferior esquerda, centro ~(370,710) ═══ -->
  <g stroke="#152870" stroke-width="0.8" fill="none" stroke-opacity="0.31">
    <path d="M382,688 C400,684 414,696 412,712 C410,728 396,740 378,738 C360,736 346,722 348,706 C350,690 364,692 382,688 Z"/>
    <path d="M388,662 C418,656 438,674 436,706 C434,738 414,762 384,764 C354,766 328,748 326,718 C324,688 344,668 388,662 Z"/>
    <path d="M394,634 C438,626 464,650 462,694 C460,738 432,768 390,772 C348,776 312,752 308,714 C304,676 322,642 394,634 Z"/>
    <path d="M400,604 C458,594 494,624 494,676 C494,728 460,768 404,774 C348,780 302,748 296,704 C290,660 308,614 400,604 Z"/>
    <path d="M406,572 C480,560 524,596 524,658 C524,720 482,768 416,776 C350,784 296,744 288,694 C280,644 296,584 406,572 Z"/>
    <path d="M412,538 C504,524 556,566 556,638 C556,710 504,768 428,778 C352,788 288,740 278,682 C268,624 282,552 412,538 Z"/>
  </g>

  <!-- ═══ FEIÇÃO D — borda direita, centro ~(1290,180) ═══ -->
  <g stroke="#152870" stroke-width="0.75" fill="none" stroke-opacity="0.27">
    <path d="M1300,158 C1318,154 1332,166 1330,182 C1328,198 1314,210 1296,208 C1278,206 1264,194 1266,178 C1268,162 1282,162 1300,158 Z"/>
    <path d="M1306,130 C1342,124 1366,144 1364,180 C1362,216 1340,242 1308,242 C1276,242 1250,220 1252,184 C1254,148 1270,136 1306,130 Z"/>
    <path d="M1312,100 C1368,92 1400,120 1398,172 C1396,224 1366,258 1320,258 C1274,258 1240,228 1240,182 C1240,136 1256,108 1312,100 Z"/>
    <path d="M1316,68 C1396,58 1444,96 1444,158 C1444,220 1408,260 1352,260 C1296,260 1252,226 1250,174 C1248,122 1264,78 1316,68 Z"/>
    <path d="M1320,34 C1424,22 1494,70 1494,144 C1494,218 1450,268 1380,268 C1310,268 1262,228 1258,168 C1254,108 1268,46 1320,34 Z"/>
    <path d="M1322,-2 C1452,-16 1494,44 1494,130 C1494,216 1458,278 1382,278 C1306,278 1254,232 1248,158 C1242,84 1268,12 1322,-2 Z"/>
  </g>

  <!-- ═══ FEIÇÃO E — inferior direita, centro ~(1100,750) ═══ -->
  <g stroke="#152870" stroke-width="0.75" fill="none" stroke-opacity="0.24">
    <path d="M1112,726 C1130,722 1144,734 1142,750 C1140,766 1126,778 1108,776 C1090,774 1076,762 1078,746 C1080,730 1094,730 1112,726 Z"/>
    <path d="M1118,700 C1152,694 1174,714 1172,750 C1170,786 1146,812 1114,812 C1082,812 1056,790 1056,756 C1056,722 1076,706 1118,700 Z"/>
    <path d="M1124,672 C1176,664 1208,692 1206,748 C1204,804 1170,840 1122,840 C1074,840 1036,810 1034,764 C1032,718 1060,680 1124,672 Z"/>
    <path d="M1130,642 C1202,632 1244,668 1242,744 C1240,820 1196,866 1132,866 C1068,866 1016,830 1012,772 C1008,714 1042,652 1130,642 Z"/>
    <path d="M1134,610 C1228,598 1280,642 1278,738 C1276,834 1220,892 1140,892 C1060,892 998,848 992,778 C986,708 1022,622 1134,610 Z"/>
  </g>

  <!-- Vinheta das bordas -->
  <rect width="1440" height="900" fill="url(#vig)"/>
</svg>
